PathFileType	4	(X/Y/Z)	C:\Users\Basilio\Documents\Thesis Gigler\squatting_fais\c3dfiles\054\SJ_pre4\markers_experimental.trc
DataRate	CameraRate	NumFrames	NumMarkers	Units	OrigDataRate	OrigDataStartFrame	OrigNumFrames
200.000000	200.000000	4	61	mm	200.000000	0	1582
Frame#	Time	FHD			LBHD			RBHD			C7			T10			CLAV			LSHO			LUUPA			LMUPA			LDUPA			LLEP			LMEP			LRAD			LUL			LRFIN			RSHO			RUPA1			RMUPA			RDUPA			RLEP			RMEP			RRAD			RUL			RUFIN			LASI			RASI			USACR			LSACR			RSACR			LTHI1			LTHI2			LTHI3			LTHI4			LLFC			LMFC			LTIB1			LTIB2			LTIB3			LTIB4			LLMAL			LMMAL			LHEE			LMT1			LMT2			LMT5			RTHI			RTHI2			RTHI3			RTHI4			RLFC			RMFC			RTIB1			RTIB2			RTIB3			RTIB4			RLMAL			RMMAL			RHEE			RMT1			RMT2			RMT5			
		X1	Y1	Z1	X2	Y2	Z2	X3	Y3	Z3	X4	Y4	Z4	X5	Y5	Z5	X6	Y6	Z6	X7	Y7	Z7	X8	Y8	Z8	X9	Y9	Z9	X10	Y10	Z10	X11	Y11	Z11	X12	Y12	Z12	X13	Y13	Z13	X14	Y14	Z14	X15	Y15	Z15	X16	Y16	Z16	X17	Y17	Z17	X18	Y18	Z18	X19	Y19	Z19	X20	Y20	Z20	X21	Y21	Z21	X22	Y22	Z22	X23	Y23	Z23	X24	Y24	Z24	X25	Y25	Z25	X26	Y26	Z26	X27	Y27	Z27	X28	Y28	Z28	X29	Y29	Z29	X30	Y30	Z30	X31	Y31	Z31	X32	Y32	Z32	X33	Y33	Z33	X34	Y34	Z34	X35	Y35	Z35	X36	Y36	Z36	X37	Y37	Z37	X38	Y38	Z38	X39	Y39	Z39	X40	Y40	Z40	X41	Y41	Z41	X42	Y42	Z42	X43	Y43	Z43	X44	Y44	Z44	X45	Y45	Z45	X46	Y46	Z46	X47	Y47	Z47	X48	Y48	Z48	X49	Y49	Z49	X50	Y50	Z50	X51	Y51	Z51	X52	Y52	Z52	X53	Y53	Z53	X54	Y54	Z54	X55	Y55	Z55	X56	Y56	Z56	X57	Y57	Z57	X58	Y58	Z58	X59	Y59	Z59	X60	Y60	Z60	X61	Y61	Z61	

1	0	-162.2092895507813	1761.820556640625	-891.981384277344	-294.4678955078126	1658.268920898438	-967.0937500000002	-314.9197692871094	1651.228515625	-828.746276855469	-331.3699645996094	1528.155883789063	-879.8107910156252	-409.1589660644532	1197.259033203125	-879.7955322265627	-201.1371154785157	1447.992553710938	-887.6989746093752	-260.0184936523438	1511.289306640625	-1043.78955078125	-382.0259704589844	1401.568481445313	-1209.72998046875	-347.8963928222657	1363.142822265625	-1221.9658203125	-398.8934936523439	1350.653442382813	-1254.63232421875	-399.8712463378907	1286.459716796875	-1278.184692382813	-470.3923645019532	1272.529174804688	-1224.122680664063	-364.8479919433594	1077.088989257813	-1119.942993164063	-325.5550537109376	1039.50634765625	-1174.423828125	-307.0559997558594	1079.969970703125	-1083.202270507813	-237.1632080078126	1509.686645507813	-722.5260009765626	-347.9732055664063	1376.387817382813	-551.2683105468751	-325.6797790527344	1332.818725585938	-548.3384399414064	-376.7615661621094	1321.461791992188	-517.3950805664064	-390.003143310547	1273.569702148438	-503.7677307128907	-454.7936401367189	1271.937866210938	-561.2462768554689	-374.8150024414063	1054.774536132813	-671.3381958007814	-309.6566467285157	1065.496215820313	-692.1333007812501	-333.4499511718751	1024.93359375	-608.5441284179689	-232.5795593261719	1011.565979003906	-1016.186645507813	-222.6853790283204	1003.74365234375	-755.7173461914064	-416.273406982422	1098.676513671875	-879.459411621094	-422.8381347656251	1067.865112304688	-908.0438232421877	-419.3399658203126	1064.86474609375	-852.0957641601565	-362.2514038085938	804.1726684570315	-1123.709106445313	-334.4457092285157	725.3673095703126	-1141.471313476563	-287.8561096191407	728.4022216796876	-1144.124877929688	-362.8455810546876	671.5148925781251	-1129.089721679688	-360.2989807128907	514.9581298828126	-1135.340942382813	-293.5289001464844	484.3646850585939	-1020.746520996094	-310.2920532226563	346.3479003906251	-1141.565551757813	-377.3143005371094	312.3123474121094	-1189.448974609375	-333.3898925781251	305.3827819824219	-1179.990844726563	-328.5140991210938	222.9491119384766	-1163.324096679688	-399.5600891113282	88.95501708984376	-1218.351928710938	-343.6571655273438	102.5001831054688	-1137.859985351563	-445.2048950195314	49.21157073974611	-1151.30078125	-231.1933746337891	62.53685379028322	-1188.939819335938	-236.6590728759766	67.74508666992189	-1238.116821289063	-294.0113220214844	41.89276123046876	-1277.680297851563	-357.5673828125001	727.4909057617189	-671.9191894531251	-328.5483093261719	668.1859130859376	-663.9268188476564	-295.6379699707032	664.9159545898439	-665.3840942382814	-366.3284912109376	594.4935302734376	-679.8114624023439	-389.7177124023439	502.6113281250001	-676.8966674804689	-313.0885620117188	483.934295654297	-793.0382080078127	-336.4105224609376	400.4260253906251	-652.3177490234376	-411.363739013672	329.7691955566407	-624.5670776367189	-365.2907714843751	323.7615966796876	-621.4256591796876	-343.5251159667969	271.0220336914063	-632.4279174804689	-399.6192932128907	90.41773986816408	-595.3945922851564	-336.6654663085938	101.0567398071289	-666.9730834960939	-437.1022949218751	48.27260208129884	-666.4952392578126	-219.8827362060547	53.08198928833009	-603.7496948242189	-233.6426086425782	55.57037734985353	-558.1707763671876	-294.4000549316407	32.0127067565918	-527.1186523437501	
2	0.005	-162.3549041748047	1761.692016601563	-891.3984985351565	-294.7518615722657	1658.319091796875	-966.7215576171877	-315.0003051757813	1651.174438476563	-828.2521972656252	-331.5076293945313	1528.122802734375	-879.6675415039065	-409.1790466308595	1197.137817382813	-879.802917480469	-201.3600158691407	1447.761840820313	-887.4519653320315	-259.8555908203126	1511.536254882813	-1043.565551757813	-381.5206909179688	1401.874755859375	-1209.81689453125	-347.2908935546876	1363.461303710938	-1221.983154296875	-397.4896545410157	1350.619750976563	-1254.855346679688	-399.7461547851564	1286.593139648438	-1277.740234375	-470.2939453125001	1272.932739257813	-1224.166259765625	-364.4958801269532	1077.367553710938	-1119.900512695313	-325.0350952148438	1039.83740234375	-1174.395751953125	-306.7820739746094	1080.08349609375	-1082.975463867188	-237.3934631347657	1509.546020507813	-722.3356933593751	-348.4476623535157	1376.158569335938	-551.3173828125001	-326.2275085449219	1332.587036132813	-548.2977294921876	-377.1728210449219	1321.285278320313	-517.5151977539064	-390.7441406250001	1273.355834960938	-503.7832031250001	-455.2657775878907	1271.649291992188	-561.4951171875001	-375.0197753906251	1054.567504882813	-671.3483276367189	-309.9838867187501	1065.324829101563	-692.0012207031251	-333.6522827148438	1024.801879882813	-608.5546264648439	-232.6107482910157	1011.467529296875	-1016.064758300781	-222.6350402832032	1003.807556152344	-755.4994506835939	-416.272430419922	1098.525146484375	-879.3571777343752	-422.7905883789064	1067.64208984375	-907.976745605469	-419.2632751464845	1064.801879882813	-852.0234375000002	-362.1220092773438	803.9788818359377	-1123.478515625	-334.3341064453126	725.2298583984376	-1141.292846679688	-287.6958312988282	728.2459716796876	-1143.915283203125	-363.0415954589844	671.4834594726564	-1128.912353515625	-360.2273864746094	514.8197021484376	-1135.213500976563	-293.4343872070313	484.2550354003907	-1020.650146484375	-310.2038879394532	346.3030090332032	-1141.521850585938	-377.1397094726563	312.2770996093751	-1189.380981445313	-333.3251342773438	305.3736267089844	-1180.005493164063	-328.4744262695313	222.7633666992188	-1163.359985351563	-399.4009094238282	88.87644195556642	-1218.426513671875	-343.3901977539063	102.3192901611328	-1137.95166015625	-445.1652832031251	49.29634475708009	-1151.217407226563	-231.1216583251954	61.9596290588379	-1189.102661132813	-236.4799194335938	67.12036132812501	-1238.245849609375	-293.9034423828126	41.42596435546876	-1277.878784179688	-357.5415344238282	727.5349731445314	-671.9321899414064	-328.5892333984376	668.2329711914064	-663.9293823242189	-295.6902465820313	664.8942871093751	-665.3987426757814	-366.3709716796876	594.5150756835939	-679.8055419921876	-389.7642211914064	502.6329956054689	-676.8878173828126	-313.1520996093751	484.0173950195314	-793.1582031250002	-336.3878784179688	400.4427795410157	-652.3741455078126	-411.3424072265626	329.7782592773438	-624.6665039062501	-365.2331237792969	323.7712097167969	-621.4609985351564	-343.5147094726563	271.0162658691407	-632.4718627929689	-399.5563964843751	90.3817825317383	-595.4093627929689	-336.6820983886719	101.0398559570313	-667.0157470703126	-437.1138610839845	48.23811340332033	-666.4899291992189	-219.8692474365235	53.11234283447267	-603.7801513671876	-233.6396484375001	55.56096267700197	-558.1807250976564	-294.4252319335938	32.01641464233399	-527.1093139648439	
3	0.01	-162.555892944336	1761.51513671875	-890.749206542969	-294.9916381835938	1658.334716796875	-966.320007324219	-315.2084045410157	1651.08935546875	-827.8922119140627	-331.6333618164063	1528.033569335938	-879.5499267578127	-409.2003784179689	1197.010009765625	-879.897888183594	-201.4328613281251	1447.639526367188	-887.2771606445315	-259.6748046875001	1511.6669921875	-1043.330200195313	-380.8888549804688	1402.16552734375	-1209.917602539063	-346.6707763671876	1363.655883789063	-1222.028686523438	-396.4710388183595	1350.614990234375	-1254.547973632813	-398.4337463378907	1286.9599609375	-1278.48095703125	-469.5760192871095	1273.246826171875	-1224.533813476563	-364.1723937988282	1077.671142578125	-1119.85400390625	-324.6236267089844	1040.103759765625	-1174.37744140625	-306.5515136718751	1080.124267578125	-1082.836181640625	-237.7042236328126	1509.291870117188	-722.1228637695314	-349.1491394042969	1375.832275390625	-551.3436279296876	-326.5452880859376	1332.3916015625	-548.3901977539064	-377.8982849121094	1321.013427734375	-517.5469970703126	-391.299774169922	1273.068481445313	-503.9152221679689	-455.6933593750001	1271.338989257813	-561.8132324218751	-375.2025146484376	1054.348999023438	-671.4230957031251	-310.0256652832032	1065.218383789063	-691.8976440429689	-333.8594970703126	1024.650268554688	-608.5981445312501	-232.5348052978516	1011.346984863281	-1015.906860351563	-222.5972595214844	1003.80517578125	-755.2877197265626	-416.1943664550782	1098.379638671875	-879.3345336914065	-422.6664123535157	1067.467895507813	-907.8928222656252	-419.2126464843751	1064.69921875	-851.9318847656252	-361.9972229003907	803.7979125976565	-1123.28125	-334.2776489257813	725.1052246093751	-1141.1083984375	-287.5952453613282	728.0653686523439	-1143.753662109375	-362.9341735839844	671.3539428710939	-1128.709838867188	-360.2077331542969	514.6701660156251	-1135.073974609375	-293.3011474609376	484.0162963867189	-1020.506164550781	-310.1455688476563	346.2890014648438	-1141.45947265625	-377.1397094726563	312.2771911621094	-1189.380981445313	-333.2621459960938	305.3150329589844	-1179.983154296875	-328.3994140625001	222.6196594238282	-1163.411499023438	-398.706268310547	88.62178802490236	-1218.642944335938	-343.1538696289063	102.2422790527344	-1138.067993164063	-445.0870056152345	49.36926651000978	-1151.173217773438	-230.9967651367188	61.11682891845705	-1189.339599609375	-236.4709777832032	66.31223297119142	-1238.405029296875	-293.9041748046876	41.0054054260254	-1278.057006835938	-357.5921020507813	727.5299682617189	-672.0040893554689	-328.5960388183594	668.2302856445314	-663.9917602539064	-295.6651611328126	664.8978271484376	-665.4671630859376	-366.4319458007813	594.5418090820314	-679.8359375000001	-389.8064880371095	502.673309326172	-676.9277954101564	-313.1787109375001	484.0623779296876	-793.2164306640627	-336.3878784179688	400.4427795410157	-652.3741455078126	-411.4143981933595	329.7377929687501	-624.8267211914064	-365.2623901367188	323.7372436523438	-621.4094238281251	-343.4813842773438	271.0291442871094	-632.5141601562501	-399.5249328613282	90.38133239746095	-595.4554443359376	-336.6276245117188	101.028923034668	-667.0619506835939	-437.1084289550782	48.2338104248047	-666.4943237304689	-219.840560913086	53.07989883422853	-603.7986450195314	-233.6507720947266	55.57009887695314	-558.2259521484376	-294.3863525390626	32.06309127807618	-527.1436157226564	
4	0.015	-162.7127838134766	1761.435180664063	-890.2624511718752	-295.0161132812501	1658.315795898438	-965.9183349609377	-315.5578918457032	1650.968994140625	-827.4980468750002	-331.8155212402344	1527.982177734375	-879.428649902344	-409.3098144531251	1196.848876953125	-879.9154052734377	-201.5714874267579	1447.530639648438	-887.0598144531252	-259.4762878417969	1511.822509765625	-1043.150146484375	-380.2430114746094	1402.370361328125	-1210.109375	-345.8546447753907	1363.827514648438	-1222.053344726563	-395.7969665527345	1350.753784179688	-1254.71435546875	-397.635955810547	1287.154052734375	-1278.675537109375	-468.7223205566407	1273.38818359375	-1225.001708984375	-363.8644714355469	1077.8779296875	-1119.8369140625	-324.1843872070313	1040.283813476563	-1174.347900390625	-306.2646484375001	1080.12841796875	-1082.694091796875	-237.9026336669922	1509.00732421875	-721.9876098632814	-349.5956726074219	1375.446411132813	-551.4071044921876	-326.5713500976563	1331.977172851563	-547.5604858398439	-378.5638427734376	1320.659912109375	-517.6386718750001	-392.0049743652345	1272.702270507813	-504.0142211914064	-456.1770324707032	1270.9833984375	-562.1152954101564	-375.2978515625001	1054.08203125	-671.5268554687501	-310.0841064453126	1065.128540039063	-691.7958984375001	-334.0442199707032	1024.452270507813	-608.6331176757814	-232.5378723144532	1011.170471191406	-1015.826354980469	-222.5321807861329	1003.874816894531	-755.1239013671876	-416.1768493652345	1098.238891601563	-879.286071777344	-422.5985717773439	1067.30078125	-907.8015136718752	-419.231658935547	1064.610717773438	-851.808044433594	-361.9191589355469	803.6323242187502	-1123.093872070313	-334.2111816406251	724.9667968750001	-1140.968994140625	-287.5082702636719	727.9547119140626	-1143.643432617188	-362.8262023925782	671.1842651367189	-1128.464965820313	-360.2746582031251	514.4812622070314	-1134.669921875	-292.9588317871094	483.7388305664064	-1020.542663574219	-310.1122131347657	346.2366943359376	-1141.508178710938	-377.0402221679688	312.2456665039063	-1189.379516601563	-333.1862487792969	305.2648925781251	-1179.99853515625	-328.2616577148438	222.5511627197266	-1163.531616210938	-398.480682373047	88.53564453125001	-1218.732421875	-342.7499694824219	102.0307693481446	-1138.301635742188	-444.8706359863282	49.43074417114259	-1151.205200195313	-230.8356628417969	60.34975814819337	-1189.516357421875	-236.4110717773438	65.55234527587892	-1238.595336914063	-293.9034118652344	40.64630508422852	-1278.342041015625	-357.6064147949219	727.5342407226564	-672.1603393554689	-328.6661376953126	668.2192993164064	-664.0572509765626	-295.7090454101563	664.8548583984376	-665.5831298828126	-366.5496520996094	594.5972900390626	-679.8680419921876	-389.8748779296876	502.6641845703126	-676.9748535156251	-313.1349792480469	484.1088867187501	-793.2951660156252	-336.4581909179688	400.4120483398439	-652.4451293945314	-411.4241027832032	329.6965026855469	-624.9641723632814	-365.2996520996094	323.7593383789063	-621.4473266601564	-343.5317993164063	271.0124511718751	-632.5195312500001	-399.5098876953126	90.40377807617189	-595.5617065429689	-336.7002258300782	100.9420166015625	-667.1626586914064	-437.1195373535157	48.20266342163087	-666.4936523437501	-219.8114166259766	53.15301895141603	-603.8034667968751	-233.6099853515626	55.62475204467775	-558.1921386718751	-294.3883666992188	32.07547760009766	-527.1561279296876	
